<svg width="35" height="35" viewBox="0 0 35 35" fill="none" xmlns="http://www.w3.org/2000/svg">
<path d="M17.3104 34.9853C26.8706 34.9853 34.6207 27.1536 34.6207 17.4927C34.6207 7.83173 26.8706 0 17.3104 0C7.75011 0 0 7.83173 0 17.4927C0 27.1536 7.75011 34.9853 17.3104 34.9853Z" fill="white"/>
<path d="M19.2283 28.6357V18.8874H22.4463L23.0565 14.8574H19.2283V12.2368C19.2283 11.1357 19.7658 10.0566 21.4802 10.0566H23.2235V6.62121C23.2235 6.62121 21.64 6.34961 20.1363 6.34961C16.9837 6.34961 14.9207 8.28019 14.9207 11.7743V14.85H11.4121V18.88H14.9207V28.6283H19.2356L19.2283 28.6357Z" fill="black"/>
</svg>
