<svg width="35" height="35" viewBox="0 0 35 35" fill="none" xmlns="http://www.w3.org/2000/svg">
<path d="M17.3104 34.9853C26.8706 34.9853 34.6207 27.1536 34.6207 17.4927C34.6207 7.83173 26.8706 0 17.3104 0C7.75011 0 0 7.83173 0 17.4927C0 27.1536 7.75011 34.9853 17.3104 34.9853Z" fill="white"/>
<path d="M22.0758 11.6423C21.4946 11.6423 21.0225 12.1195 21.0225 12.7067C21.0225 13.294 21.4946 13.7711 22.0758 13.7711C22.6569 13.7711 23.1291 13.294 23.1291 12.7067C23.1291 12.1195 22.6569 11.6423 22.0758 11.6423Z" fill="black"/>
<path d="M17.3827 13.0076C14.9347 13.0076 12.9443 15.0189 12.9443 17.4927C12.9443 19.9665 14.9347 21.9778 17.3827 21.9778C19.8307 21.9778 21.8211 19.9665 21.8211 17.4927C21.8211 15.0189 19.8307 13.0076 17.3827 13.0076ZM17.3827 20.3629C15.8137 20.3629 14.5424 19.0709 14.5424 17.4927C14.5424 15.9144 15.8209 14.6225 17.3827 14.6225C18.9445 14.6225 20.223 15.9144 20.223 17.4927C20.223 19.0709 18.9445 20.3629 17.3827 20.3629Z" fill="black"/>
<path d="M20.906 26.5951H13.7145C10.7289 26.5951 8.30273 24.1433 8.30273 21.1263V13.8591C8.30273 10.8421 10.7289 8.39038 13.7145 8.39038H20.906C23.8915 8.39038 26.3177 10.8421 26.3177 13.8591V21.1263C26.3177 24.1433 23.8915 26.5951 20.906 26.5951ZM13.7072 10.1007C11.6588 10.1007 9.98801 11.7891 9.98801 13.8591V21.1263C9.98801 23.1964 11.6588 24.8847 13.7072 24.8847H20.8987C22.9472 24.8847 24.6179 23.1964 24.6179 21.1263V13.8591C24.6179 11.7891 22.9472 10.1007 20.8987 10.1007H13.7072Z" fill="black"/>
</svg>
