<svg width="96" height="86" viewBox="0 0 96 86" fill="none" xmlns="http://www.w3.org/2000/svg">
<g clip-path="url(#clip0_210_522)">
<path d="M1.29579 73.0445C1.03986 73.0445 0.838282 72.9717 0.693328 72.8238C0.548374 72.6759 0.473633 72.4756 0.473633 72.2207V71.5881C0.473633 71.3674 0.505341 71.1625 0.571023 70.9714C0.634441 70.778 0.756745 70.5527 0.940202 70.2978L9.85258 57.1945C9.90694 57.1034 9.91147 57.0215 9.86617 56.9464C9.82087 56.8736 9.7348 56.8372 9.60571 56.8372H2.11568C1.86202 56.8372 1.66044 56.7644 1.51549 56.6164C1.37053 56.4685 1.29579 56.2683 1.29579 56.0111V55.1873C1.29579 54.9324 1.36827 54.7299 1.51549 54.5843C1.6627 54.4386 1.86202 54.3635 2.11568 54.3635H12.7516C13.0053 54.3635 13.2069 54.4363 13.3518 54.5843C13.4968 54.7322 13.5715 54.9324 13.5715 55.1873V55.7904C13.5715 56.0111 13.5217 56.2296 13.4221 56.4503C13.3201 56.6711 13.1978 56.8895 13.0529 57.1103L4.19713 70.1294C4.10653 70.2568 4.08388 70.3638 4.12691 70.4457C4.17221 70.5299 4.27866 70.5709 4.44174 70.5709H13.0257C13.2794 70.5709 13.4809 70.6437 13.6259 70.7916C13.7709 70.9395 13.8456 71.1398 13.8456 71.3947V72.2207C13.8456 72.4756 13.7731 72.6782 13.6259 72.8238C13.4787 72.9694 13.2794 73.0445 13.0257 73.0445H1.29579Z" fill="white"/>
<path d="M23.1656 73.0445C22.9119 73.0445 22.7104 72.9716 22.5654 72.8237C22.4204 72.6781 22.3457 72.4755 22.3457 72.2207V55.1895C22.3457 54.9346 22.4182 54.7321 22.5654 54.5865C22.7126 54.4408 22.9119 54.3657 23.1656 54.3657H32.1867C32.4426 54.3657 32.6442 54.4385 32.7892 54.5865C32.9341 54.7344 33.0088 54.9346 33.0088 55.1895V56.0133C33.0088 56.2705 32.9364 56.473 32.7892 56.6186C32.6419 56.7643 32.4426 56.8394 32.1867 56.8394H25.2176C25.0341 56.8394 24.9435 56.9304 24.9435 57.1147V62.0575C24.9435 62.2418 25.0341 62.3329 25.2176 62.3329H31.6408C31.8945 62.3329 32.0961 62.4057 32.2433 62.5536C32.3883 62.6992 32.4607 62.9018 32.4607 63.1589V63.9827C32.4607 64.2376 32.3883 64.4424 32.2433 64.5858C32.0984 64.7291 31.8945 64.8065 31.6408 64.8065H25.2176C25.0341 64.8065 24.9435 64.8975 24.9435 65.0819V70.3023C24.9435 70.4843 25.0341 70.5776 25.2176 70.5776H32.7348C32.9885 70.5776 33.19 70.6504 33.335 70.7984C33.4799 70.9463 33.5547 71.1465 33.5547 71.4014V72.2275C33.5547 72.4824 33.4822 72.6849 33.335 72.8305C33.19 72.9762 32.9885 73.0513 32.7348 73.0513H23.1656V73.0445Z" fill="white"/>
<path d="M43.1217 73.0445C42.868 73.0445 42.6664 72.9716 42.5215 72.8237C42.3765 72.6758 42.3018 72.4755 42.3018 72.2207V55.1895C42.3018 54.9346 42.3742 54.7321 42.5215 54.5865C42.6687 54.4408 42.868 54.3657 43.1217 54.3657H47.7692C48.4985 54.3657 49.187 54.4977 49.8348 54.764C50.4803 55.0302 51.0465 55.3966 51.529 55.8631C52.0114 56.3296 52.3941 56.8849 52.675 57.5244C52.9581 58.1661 53.0985 58.8511 53.0985 59.5838C53.0985 60.2438 52.9808 60.8582 52.7429 61.4249C52.5051 61.9915 52.179 62.5149 51.76 62.9905C51.5946 63.1726 51.615 63.3478 51.8143 63.5117C52.5799 64.0783 53.1665 64.7155 53.5764 65.421C53.9864 66.1241 54.1925 66.9274 54.1925 67.8241C54.1925 68.575 54.0498 69.2668 53.7689 69.8972C53.4858 70.5298 53.1031 71.0783 52.6206 71.5448C52.1382 72.0113 51.572 72.3777 50.9265 72.6417C50.281 72.9079 49.5902 73.0399 48.8632 73.0399H43.1217V73.0445ZM47.579 62.4694C47.9074 62.4694 48.2449 62.4102 48.5891 62.2896C48.9356 62.1713 49.2482 61.9961 49.5336 61.7685C49.8144 61.5409 50.0477 61.2428 50.2289 60.8742C50.4124 60.51 50.503 60.0777 50.503 59.5838C50.503 59.09 50.4124 58.669 50.2289 58.3208C50.0477 57.9727 49.8144 57.6882 49.5336 57.4675C49.2505 57.2467 48.9356 57.0897 48.5891 56.9873C48.2426 56.8872 47.9051 56.8371 47.579 56.8371H45.1736C44.9902 56.8371 44.8996 56.9281 44.8996 57.1125V62.194C44.8996 62.3761 44.9902 62.4694 45.1736 62.4694H47.579ZM48.6729 70.5731C49.0013 70.5731 49.3388 70.523 49.6831 70.4206C50.0296 70.3205 50.3421 70.1589 50.6275 69.9404C50.9084 69.7197 51.1417 69.4375 51.3251 69.0893C51.5063 68.7412 51.5992 68.3202 51.5992 67.8263C51.5992 67.3325 51.5086 66.9001 51.3251 66.5338C51.1417 66.1696 50.9084 65.8715 50.6275 65.6417C50.3444 65.4141 50.0296 65.2389 49.6831 65.1206C49.3365 65.0022 48.9991 64.9408 48.6729 64.9408H45.1736C44.9902 64.9408 44.8996 65.0318 44.8996 65.2161V70.2977C44.8996 70.4798 44.9902 70.5731 45.1736 70.5731H48.6729Z" fill="white"/>
<path d="M72.783 73.0445C72.3255 73.0445 71.9903 72.7964 71.7729 72.3026L68.5476 65.3254C68.4367 65.0705 68.2464 64.9408 67.9723 64.9408H65.3768C65.1933 64.9408 65.1027 65.0318 65.1027 65.2161V72.2207C65.1027 72.4755 65.0302 72.6781 64.8853 72.8237C64.7381 72.9694 64.5365 73.0445 64.2828 73.0445H63.3248C63.0711 73.0445 62.8673 72.9716 62.7246 72.8237C62.5796 72.6781 62.5049 72.4755 62.5049 72.2207V55.1895C62.5049 54.9346 62.5774 54.7321 62.7246 54.5865C62.8695 54.4408 63.0711 54.3657 63.3248 54.3657H68.9281C69.6574 54.3657 70.3392 54.4977 70.9801 54.764C71.6166 55.0302 72.1669 55.3966 72.6335 55.8631C73.0978 56.3296 73.4625 56.8849 73.7275 57.5244C73.9902 58.1661 74.1238 58.8511 74.1238 59.5838C74.1238 60.6261 73.8769 61.5523 73.3809 62.3579C72.8849 63.1635 72.2575 63.7779 71.5011 64.1989C71.2089 64.365 71.1455 64.629 71.3085 64.9954L74.5881 72.0545C74.715 72.3299 74.7263 72.562 74.6153 72.7554C74.5066 72.9489 74.3141 73.0445 74.0423 73.0445H72.7853H72.783ZM68.7651 62.4694C69.1297 62.4694 69.4808 62.3989 69.8182 62.2623C70.1534 62.1235 70.4501 61.9278 70.7061 61.6729C70.962 61.4158 71.1681 61.1085 71.3221 60.7513C71.4761 60.394 71.5554 60.0048 71.5554 59.5838C71.5554 59.1628 71.4784 58.7828 71.3221 58.4437C71.1681 58.1069 70.962 57.8179 70.7061 57.579C70.4524 57.34 70.1557 57.158 69.8182 57.0305C69.4808 56.9031 69.1297 56.8371 68.7651 56.8371H65.404C65.2205 56.8371 65.1299 56.9281 65.1299 57.1125V62.194C65.1299 62.3761 65.2205 62.4694 65.404 62.4694H68.7651Z" fill="white"/>
<path d="M95.0902 73.0445C94.9091 73.1901 94.703 73.2538 94.4765 73.2379C94.25 73.2197 94.0325 73.1537 93.8332 73.0445L85.8789 68.3748C85.7498 68.302 85.6366 68.302 85.5369 68.3748C85.4373 68.4476 85.3693 68.5409 85.3308 68.6501L84.2119 72.3845C84.0851 72.8237 83.7748 73.0445 83.2811 73.0445H81.9402C81.4125 73.0445 81.22 72.7896 81.3672 72.2753L86.8347 55.1076C86.9253 54.814 87.0476 54.616 87.2039 54.5159C87.3601 54.4158 87.564 54.3657 87.8199 54.3657H89.7315C89.9874 54.3657 90.1935 54.4158 90.3476 54.5159C90.5016 54.616 90.6261 54.814 90.7167 55.1076L95.9373 71.5334C96.0642 71.9544 95.9917 72.2844 95.7176 72.5211L95.088 73.0422L95.0902 73.0445ZM89.0498 57.8543C88.9931 57.6541 88.9048 57.5517 88.7757 57.5517C88.6466 57.5517 88.556 57.6518 88.5017 57.8543L86.3432 65.1069C86.2707 65.3436 86.2594 65.5234 86.3138 65.6417C86.3704 65.76 86.4587 65.8556 86.5878 65.9307L91.7269 68.9505C91.9262 69.0802 92.0734 69.0939 92.164 68.9915C92.2546 68.8936 92.2818 68.7776 92.2478 68.6479L89.0498 57.8543Z" fill="white"/>
<path d="M0 81.0164H1.76889C2.84018 81.0164 3.57854 81.5693 3.57854 82.5137V82.5274C3.57854 83.556 2.69296 84.0885 1.67603 84.0885H0.360119V85.9136H0V81.0164ZM1.69867 83.754C2.60463 83.754 3.21842 83.2761 3.21842 82.5479V82.5342C3.21842 81.7582 2.62049 81.3509 1.74171 81.3509H0.360119V83.7517H1.69641L1.69867 83.754Z" fill="white"/>
<path d="M8.12629 81.0164H10.1738C10.7717 81.0164 11.2518 81.2052 11.544 81.4988C11.7728 81.7309 11.9109 82.0586 11.9109 82.4113V82.425C11.9109 83.242 11.3062 83.7108 10.484 83.8245L12.0921 85.9159H11.6324L10.0786 83.886H8.48414V85.9159H8.12402V81.0186L8.12629 81.0164ZM10.1307 83.556C10.9461 83.556 11.5531 83.1418 11.5531 82.4387V82.425C11.5531 81.7651 11.0367 81.3532 10.1534 81.3532H8.48641V83.5583H10.1307V83.556Z" fill="white"/>
<path d="M16.4209 83.4808V83.4672C16.4209 82.1313 17.4039 80.9343 18.8806 80.9343C20.3573 80.9343 21.3244 82.1177 21.3244 83.4535C21.3244 83.4535 21.3244 83.4581 21.3244 83.4672C21.3244 84.803 20.3437 86 18.867 86C17.3903 86 16.4209 84.8166 16.4209 83.4808ZM20.9484 83.4808V83.4672C20.9484 82.2542 20.0719 81.262 18.867 81.262C17.6621 81.262 16.7991 82.2406 16.7991 83.4535V83.4672C16.7991 84.6778 17.6757 85.67 18.8806 85.67C20.0855 85.67 20.9484 84.6915 20.9484 83.4808Z" fill="white"/>
<path d="M26.0332 81.0164H27.6549C29.1859 81.0164 30.2436 82.0723 30.2436 83.4536V83.4673C30.2436 84.844 29.1859 85.9159 27.6549 85.9159H26.0332V81.0186V81.0164ZM27.6571 85.5791C29.0138 85.5791 29.8722 84.6483 29.8722 83.4809V83.4673C29.8722 82.3044 29.0161 81.3532 27.6571 81.3532H26.3956V85.5814H27.6571V85.5791Z" fill="white"/>
<path d="M34.8753 83.8769V81.0164H35.2377V83.8427C35.2377 84.9988 35.856 85.661 36.8888 85.661C37.9216 85.661 38.5105 85.0602 38.5105 83.8769V81.0164H38.8706V83.8359C38.8706 85.2446 38.0575 85.9933 36.873 85.9933C35.6884 85.9933 34.873 85.2514 34.873 83.8792L34.8753 83.8769Z" fill="white"/>
<path d="M43.5039 83.4808V83.4672C43.5039 82.0813 44.5344 80.9343 45.9432 80.9343C46.8129 80.9343 47.3361 81.2552 47.8389 81.7172L47.5807 81.9834C47.1549 81.5692 46.668 81.262 45.9364 81.262C44.7655 81.262 43.8821 82.2201 43.8821 83.4535V83.4672C43.8821 84.7051 44.7813 85.67 45.9432 85.67C46.6476 85.67 47.1277 85.3992 47.6215 84.9077L47.8661 85.1466C47.3497 85.6564 46.7948 86 45.9296 86C44.5344 86 43.5039 84.8872 43.5039 83.4808Z" fill="white"/>
<path d="M51.9814 83.4808V83.4672C51.9814 82.0813 53.012 80.9343 54.4207 80.9343C55.2905 80.9343 55.8137 81.2552 56.3165 81.7172L56.0583 81.9834C55.6325 81.5692 55.1455 81.262 54.4139 81.262C53.243 81.262 52.3597 82.2201 52.3597 83.4535V83.4672C52.3597 84.7051 53.2588 85.67 54.4207 85.67C55.1251 85.67 55.6053 85.3992 56.099 84.9077L56.3436 85.1466C55.8272 85.6564 55.2723 86 54.4072 86C53.012 86 51.9814 84.8872 51.9814 83.4808Z" fill="white"/>
<path d="M60.8604 81.0164H61.2227V85.9136H60.8604V81.0164Z" fill="white"/>
<path d="M65.9834 83.4808V83.4672C65.9834 82.1313 66.9664 80.9343 68.4431 80.9343C69.9198 80.9343 70.8869 82.1177 70.8869 83.4535C70.8869 83.4535 70.8869 83.4581 70.8869 83.4672C70.8869 84.803 69.9062 86 68.4295 86C66.9528 86 65.9834 84.8166 65.9834 83.4808ZM70.5109 83.4808V83.4672C70.5109 82.2542 69.6344 81.262 68.4295 81.262C67.2246 81.262 66.3616 82.2406 66.3616 83.4535V83.4672C66.3616 84.6778 67.2382 85.67 68.4431 85.67C69.648 85.67 70.5109 84.6915 70.5109 83.4808Z" fill="white"/>
<path d="M75.5931 81.0164H75.9328L79.2962 85.2787V81.0164H79.6427V85.9136H79.3709L75.9373 81.5625V85.9136H75.5908V81.0164H75.5931Z" fill="white"/>
<path d="M84.5693 81.0164H88.0369V81.3509H84.9317V83.2761H87.7243V83.6129H84.9317V85.5791H88.0709V85.9136H84.5693V81.0164Z" fill="white"/>
<path d="M92.3984 85.199L92.634 84.9259C93.1708 85.4243 93.6645 85.6541 94.3825 85.6541C95.1005 85.6541 95.6146 85.2422 95.6146 84.6824V84.6687C95.6146 84.1499 95.3451 83.8495 94.2375 83.6265C93.0666 83.3875 92.5932 82.987 92.5932 82.2474V82.2338C92.5932 81.5055 93.2568 80.948 94.1605 80.948C94.8694 80.948 95.3383 81.1437 95.832 81.542L95.601 81.8287C95.1412 81.4282 94.6815 81.2757 94.1469 81.2757C93.429 81.2757 92.9556 81.6899 92.9556 82.1996V82.2133C92.9556 82.7321 93.2183 83.0462 94.3757 83.2828C95.5036 83.515 95.977 83.9223 95.977 84.6323V84.6482C95.977 85.4379 95.2998 85.9818 94.3621 85.9818C93.583 85.9818 92.985 85.7246 92.3984 85.199Z" fill="white"/>
<path d="M32.252 22.8592C32.295 22.6999 32.3154 22.5383 32.3902 22.3813C32.4355 22.2857 32.5849 22.1196 32.6416 22.1218C32.8386 22.1287 33.1489 22.156 33.1806 22.2447C33.74 23.8263 35.3164 24.8618 36.9585 25.9154C43.3998 30.0571 50.31 34.5265 57.7457 39.3692C60.835 41.3809 62.2642 44.1982 62.1668 47.7528C62.1623 47.8825 62.0286 48.1192 61.9629 48.1169C61.7115 48.1078 61.3016 48.085 61.2405 47.9576C60.0989 45.6205 57.9677 44.1709 55.8409 42.7508C48.2513 37.6875 41.2482 32.9859 34.7615 28.6166C32.5261 27.1101 31.7696 25.1462 32.2565 22.8592H32.252Z" fill="white"/>
<path d="M55.8395 48.11C55.527 48.1282 55.3661 48.1441 55.2076 48.1441C53.1307 48.1441 51.0515 48.1555 48.9769 48.135C48.6734 48.1327 48.3268 48.0326 48.1049 47.871C42.7801 44.0229 37.7611 40.375 33.0116 36.925C30.4024 35.0317 29.5463 32.624 30.4002 29.7544C30.4409 29.6179 30.5927 29.3994 30.724 29.3653C31.0162 29.2902 31.245 29.3471 31.3333 29.6088C31.664 30.6055 32.28 31.4907 33.2064 32.2258C33.8813 32.7606 34.6197 33.2544 35.349 33.7641C41.5367 38.0879 48.1842 42.7257 55.3367 47.7208C55.4749 47.8164 55.6017 47.9234 55.8418 48.11H55.8395Z" fill="white"/>
<path d="M40.4309 48.1101C40.132 48.1283 39.987 48.1442 39.8443 48.1442C37.7289 48.1442 35.6135 48.1487 33.5003 48.1419C33.3078 48.1419 33.0677 48.1305 32.95 48.0327C31.745 47.0337 30.4337 46.1325 29.453 45.0288C27.6954 43.0467 27.3421 40.6686 28.1439 38.0925C28.1892 37.9469 28.3522 37.7079 28.4791 37.6784C28.7826 37.6078 29.0521 37.6283 29.1472 37.9378C29.5549 39.2759 30.3793 40.4228 31.6069 41.3627C32.651 42.1637 33.7155 42.967 34.7913 43.784C36.4991 45.0789 38.2408 46.3987 40.0164 47.7482C40.1297 47.8347 40.2271 47.9325 40.4264 48.1101H40.4309Z" fill="white"/>
<path d="M54.8269 7.84083e-05C50.3289 8.80466 49.7083 17.186 53.9776 25.9018C52.8769 24.9938 51.6878 24.1723 50.689 23.1642C47.0946 19.539 44.2385 15.4018 42.9022 10.409C41.2534 4.24649 43.4254 1.03323 49.6698 0.207165C51.1986 0.00462976 52.7636 0.0729 54.8269 -0.00219727V7.84083e-05Z" fill="white"/>
<path d="M64.6247 15.6431C67.6189 19.514 70.74 23.2984 73.5077 27.3264C74.092 28.1775 73.7591 30.1073 73.2019 31.211C72.2212 33.1521 68.7695 34.117 66.3642 33.4912C63.8796 32.8449 62.4391 31.0426 62.5456 28.6303C62.7335 24.3885 63.3677 20.1671 63.8139 15.9366C64.0834 15.8388 64.3529 15.7409 64.6247 15.6431Z" fill="white"/>
<path d="M56.6705 23.1117C56.2945 17.4567 55.9412 12.1521 55.5811 6.72461C61.395 10.3725 61.7257 15.1241 56.6705 23.1117Z" fill="white"/>
<path d="M36.9791 12.2501C37.0584 12.0772 37.1127 11.8928 37.226 11.7381C37.2939 11.6425 37.4978 11.5128 37.5634 11.5424C37.7899 11.6402 38.141 11.8155 38.1614 11.9338C38.5124 14.0706 40.1047 15.9731 41.7308 17.887C47.7804 25.0075 53.7416 32.0553 59.61 39.0371C61.902 41.7633 62.5928 44.7991 61.8681 48.1625C61.8409 48.2831 61.6869 48.4811 61.6325 48.4675C61.4241 48.4106 61.0821 48.3036 61.0527 48.1716C60.5046 45.6957 58.9282 43.816 57.3111 41.9226C51.1959 34.7588 45.0263 27.4949 38.8001 20.1376C36.5261 17.45 36.0007 14.7829 36.9791 12.2547V12.2501Z" fill="white"/>
</g>
<defs>
<clipPath id="clip0_210_522">
<rect width="96" height="86" fill="white"/>
</clipPath>
</defs>
</svg>
