<svg width="48" height="50" viewBox="0 0 48 50" fill="none" xmlns="http://www.w3.org/2000/svg">
<g clip-path="url(#clip0_210_269)">
<path d="M4.7005 23.5836C4.74491 23.4179 4.76712 23.2522 4.84262 23.0909C4.88926 22.9914 5.0447 22.8213 5.10466 22.8235C5.30897 22.8301 5.63318 22.8588 5.66649 22.9494C6.24831 24.5824 7.89162 25.6496 9.60154 26.7368C16.3124 31.0103 23.5119 35.6196 31.2554 40.6156C34.4732 42.6905 35.9632 45.5984 35.8589 49.2664C35.8544 49.399 35.7145 49.6442 35.6457 49.642C35.3836 49.6332 34.9573 49.6089 34.8929 49.4785C33.7026 47.0678 31.4819 45.5719 29.2679 44.1069C21.3623 38.8832 14.0651 34.0331 7.3098 29.5232C4.9803 27.9698 4.19196 25.9435 4.7005 23.5836Z" fill="white"/>
<path d="M29.2722 49.6354C28.948 49.6531 28.7792 49.6708 28.6127 49.6708C26.4475 49.6708 24.2824 49.684 22.1216 49.6597C21.8063 49.6553 21.4443 49.5537 21.2134 49.3879C15.6661 45.4172 10.4386 41.6541 5.48874 38.0944C2.77063 36.1411 1.87792 33.6574 2.76841 30.6965C2.8106 30.5551 2.97049 30.3319 3.10596 30.2965C3.41019 30.2192 3.65002 30.2766 3.73885 30.5484C4.08305 31.5759 4.72483 32.4907 5.68861 33.2486C6.39034 33.7988 7.16092 34.3115 7.92039 34.8374C14.367 39.2964 21.2911 44.0826 28.7437 49.2355C28.8881 49.3349 29.0191 49.4454 29.27 49.6354H29.2722Z" fill="white"/>
<path d="M13.2215 49.6332C12.9084 49.6509 12.7596 49.6686 12.6109 49.6686C10.4079 49.6686 8.20502 49.673 6.00211 49.6641C5.80003 49.6641 5.55131 49.6531 5.42917 49.5536C4.17449 48.524 2.80877 47.5937 1.78726 46.4535C-0.0448016 44.4096 -0.411214 41.9569 0.423762 39.2964C0.470396 39.144 0.641388 38.8987 0.772409 38.8678C1.08775 38.7949 1.36977 38.8147 1.46748 39.1351C1.89163 40.5162 2.75103 41.7005 4.03015 42.6684C5.11828 43.4948 6.2264 44.3256 7.34784 45.1675C9.12661 46.5043 10.9431 47.8655 12.793 49.2576C12.9106 49.3459 13.0128 49.4476 13.2215 49.631V49.6332Z" fill="white"/>
<path d="M28.2183 0C23.5327 9.08388 22.8865 17.7302 27.3345 26.7213C26.1864 25.7844 24.9495 24.9381 23.908 23.8974C20.1639 20.1564 17.1882 15.8896 15.7958 10.7389C14.077 4.38174 16.3421 1.06505 22.8465 0.214336C24.4387 0.00662896 26.0687 0.0773378 28.2183 0Z" fill="white"/>
<path d="M38.4268 16.1371C41.5468 20.1321 44.7957 24.0366 47.6804 28.1907C48.2888 29.068 47.9424 31.0611 47.3628 32.199C46.3413 34.2032 42.746 35.1953 40.2389 34.5523C37.6496 33.8872 36.1506 32.0245 36.2616 29.5364C36.457 25.1613 37.1166 20.8039 37.5829 16.4398C37.865 16.3382 38.1448 16.2387 38.4268 16.1371Z" fill="white"/>
<path d="M30.1416 23.8444C29.7508 18.0109 29.3821 12.5376 29.0068 6.93831C35.0649 10.7013 35.4091 15.6046 30.1416 23.8444Z" fill="white"/>
<path d="M9.6242 12.637C9.70637 12.458 9.76189 12.268 9.87958 12.1089C9.95064 12.0117 10.1638 11.8769 10.2327 11.9056C10.4681 12.0072 10.8345 12.1862 10.8545 12.31C11.2209 14.5152 12.8797 16.4774 14.5719 18.4506C20.8742 25.7977 27.0832 33.0674 33.1989 40.2709C35.5862 43.0838 36.3057 46.2149 35.5506 49.684C35.524 49.81 35.3619 50.0133 35.3041 49.9978C35.0865 49.9381 34.7312 49.8299 34.7001 49.6929C34.1294 47.1385 32.4883 45.1984 30.8028 43.2451C24.4317 35.8538 18.005 28.3609 11.5184 20.7685C9.14898 17.9954 8.60269 15.2444 9.62198 12.637H9.6242Z" fill="white"/>
</g>
<defs>
<clipPath id="clip0_210_269">
<rect width="48" height="50" fill="white"/>
</clipPath>
</defs>
</svg>
