<svg width="55" height="70" viewBox="0 0 55 70" fill="none" xmlns="http://www.w3.org/2000/svg">
<g clip-path="url(#clip0_211_2005)" filter="url(#filter0_d_211_2005)">
<path d="M50.3035 22.0186C50.8068 17.409 49.7455 14.3365 49.701 14.2074C49.6017 13.9289 49.3741 13.7081 49.0899 13.6164C48.9581 13.5739 45.8086 12.5956 41.1339 13.1289C38.4055 13.4397 35.7112 14.2057 33.1266 15.4031C29.912 16.8927 26.86 19.0582 24.0562 21.8402C21.2816 24.5934 19.1026 27.5334 17.5792 30.5804L17.5569 30.6263L17.5056 30.6161C15.7288 30.29 11.1346 29.9384 6.8519 33.7073C6.57974 33.9467 6.46676 34.3289 6.56776 34.6788C6.66703 35.0286 6.96487 35.2936 7.32604 35.3564C7.36883 35.3632 11.619 36.136 14.7788 39.7843C14.8302 39.8437 14.8918 39.8981 14.9602 39.9456L14.9911 39.9677V40.0051C14.9448 40.7966 14.9448 41.5897 14.9876 42.3625V42.388L14.9739 42.4084C12.8121 45.1599 12.3448 47.9844 13.8083 49.4366C14.3594 49.9834 15.1348 50.2739 16.0489 50.2739C17.4987 50.2739 19.207 49.5741 20.8588 48.3054L20.8845 48.285L20.917 48.2935C20.9769 48.3088 21.0334 48.3173 21.0899 48.3207C21.867 48.3699 22.6629 48.3699 23.4726 48.3207L23.5239 48.3173L23.541 48.3648C23.5975 48.5126 23.6917 48.6451 23.8132 48.7487C27.5019 51.8942 28.2688 56.0995 28.2756 56.142C28.3372 56.5004 28.6042 56.7976 28.9569 56.8978C29.306 56.9963 29.6963 56.8842 29.9377 56.6142C34.2238 51.8212 33.1968 46.5594 32.9468 45.5522L32.9349 45.5013L32.9811 45.4758C35.8448 43.9404 38.6845 41.7851 41.4215 39.0692C44.2869 36.226 46.507 33.1604 48.0235 29.9571C49.2423 27.3789 50.0108 24.7072 50.3035 22.0152V22.0186ZM9.71387 34.0741L9.58378 34.0266L9.70189 33.9535C11.1894 33.0279 12.8292 32.4946 14.5785 32.3655C15.2752 32.3145 15.9719 32.3315 16.6514 32.4147L16.7404 32.4249L16.7079 32.5065C16.5727 32.8411 16.4597 33.1332 16.3638 33.4015C15.8863 34.7229 15.5251 36.0698 15.2906 37.4065L15.2684 37.5322L15.1759 37.4438C13.2297 35.6078 11.1329 34.5972 9.71729 34.0724L9.71387 34.0741ZM20.8417 45.79C19.7496 46.8736 18.5172 47.6956 17.3703 48.1016C16.8688 48.2799 16.4118 48.3699 16.0352 48.3699C15.6586 48.3699 15.3488 48.2782 15.1639 48.0931C14.8148 47.7466 14.7908 46.9823 15.1006 46.0516C15.4875 44.8881 16.357 43.5803 17.485 42.4593C19.4021 40.5571 21.2713 39.8811 22.2881 39.8811C22.6783 39.8811 22.9813 39.9762 23.1627 40.1562C23.5119 40.5027 23.5359 41.267 23.2261 42.1978C22.8392 43.3612 21.9697 44.669 20.8417 45.79ZM31.2899 48.9491C31.1598 50.6849 30.6223 52.312 29.6895 53.788L29.6159 53.9052L29.5679 53.7761C29.0099 52.2933 27.9281 50.1091 25.9425 48.1236L25.8518 48.0319L25.9785 48.0082C27.6731 47.6889 29.3899 47.1504 31.0794 46.4065L31.1598 46.3709L31.1752 46.4575C31.2711 47.0078 31.3704 47.8859 31.2899 48.9491ZM45.2232 31.163C43.8898 33.4474 42.1541 35.6554 40.0658 37.7275C36.2282 41.5354 30.1533 46.1382 23.0053 46.4405L22.8461 46.4473L22.9488 46.3284C25.4359 43.4529 26.0795 40.3618 24.5167 38.8111C22.9693 37.2757 19.8814 37.8922 17.0057 40.3108L16.8859 40.4127L16.8928 40.2565C16.992 38.1979 17.42 36.1089 18.1646 34.0469C19.5373 30.2492 21.9748 26.5942 25.4085 23.1871C27.5088 21.1031 29.7665 19.3775 32.1184 18.0578L32.2023 18.0102L32.2194 18.1037C32.7962 21.1541 34.4309 24.1399 36.8221 26.5143C39.2185 28.8922 42.1062 30.4649 45.1736 31.0628L45.2677 31.0815L45.2198 31.1647L45.2232 31.163ZM46.2126 29.3066L46.1629 29.2998C43.2873 28.8905 40.4527 27.423 38.1812 25.1692C35.8841 22.8899 34.4035 20.0416 34.0081 17.1491L34.0013 17.0999L34.0475 17.0795C36.3788 16.0129 38.8009 15.3233 41.2469 15.0329C44.696 14.6218 47.2807 15.128 47.991 15.2927L48.0321 15.3029L48.0424 15.3437C48.2204 16.0332 48.7733 18.5436 48.3864 21.9269C48.104 24.3947 47.3868 26.8506 46.2554 29.2251L46.2143 29.31L46.2126 29.3066Z" fill="#020202"/>
<path d="M34.6128 28.7887C33.7022 27.8851 32.504 27.4333 31.3075 27.4333C30.111 27.4333 28.9145 27.8851 28.0022 28.7887C27.1189 29.6651 26.6328 30.8285 26.6328 32.0684C26.6328 33.3083 27.1189 34.4717 28.0022 35.3481C28.8854 36.2245 30.0562 36.7035 31.3075 36.7035C32.5587 36.7035 33.7313 36.2211 34.6128 35.3481C35.496 34.4717 35.9821 33.3083 35.9821 32.0684C35.9821 30.8285 35.496 29.6651 34.6128 28.7887ZM33.2571 34.0029C32.7196 34.5362 32.0144 34.8029 31.3075 34.8029C30.6005 34.8029 29.8953 34.5362 29.3578 34.0029C28.8375 33.4866 28.5499 32.7987 28.5499 32.0684C28.5499 31.3381 28.8375 30.6502 29.3578 30.1339C29.8782 29.6175 30.5697 29.3339 31.3075 29.3339C32.0452 29.3339 32.7368 29.6175 33.2571 30.1339C33.7775 30.6502 34.065 31.3381 34.065 32.0684C34.065 32.7987 33.7775 33.4866 33.2571 34.0029Z" fill="#020202"/>
<path d="M11.2842 40.2803C11.0976 40.0951 10.8528 40.0017 10.6063 40.0017C10.3598 40.0017 10.1151 40.0951 9.92849 40.2803L4.27986 45.8851C3.90671 46.2554 3.90671 46.8583 4.27986 47.2303C4.4613 47.4103 4.70094 47.5088 4.9577 47.5088C5.21445 47.5088 5.45409 47.4103 5.63553 47.2303L11.2842 41.6254C11.6573 41.2552 11.6573 40.6505 11.2842 40.2803Z" fill="#020202"/>
<path d="M11.5602 49.3042C11.3788 49.1241 11.1391 49.0256 10.8824 49.0256C10.6256 49.0256 10.386 49.1241 10.2045 49.3042L4.8315 54.6356C4.65006 54.8156 4.55078 55.0534 4.55078 55.3082C4.55078 55.5629 4.65006 55.8007 4.8315 55.9808C5.01294 56.1608 5.25258 56.2593 5.50934 56.2593C5.76609 56.2593 6.00573 56.1608 6.18717 55.9808L11.5602 50.6493C11.9334 50.2791 11.9334 49.6744 11.5602 49.3042Z" fill="#020202"/>
<path d="M14.8668 51.49C14.6854 51.3099 14.4457 51.2114 14.189 51.2114C13.9322 51.2114 13.6926 51.3099 13.5111 51.49L4.55721 60.3762C4.18406 60.7465 4.18406 61.3511 4.55721 61.7214C4.73865 61.9014 4.97829 61.9999 5.23504 61.9999C5.4918 61.9999 5.73144 61.9014 5.91288 61.7214L14.8685 52.8351C15.2417 52.4649 15.2417 51.8602 14.8685 51.49H14.8668Z" fill="#020202"/>
<path d="M23.132 51.7634C22.9506 51.5834 22.7109 51.4849 22.4542 51.4849C22.1974 51.4849 21.9578 51.5834 21.7763 51.7634L15.8521 57.6417C15.479 58.012 15.479 58.6166 15.8521 58.9869C16.0336 59.1669 16.2732 59.2654 16.53 59.2654C16.7867 59.2654 17.0264 59.1669 17.2078 58.9869L23.132 53.1086C23.5052 52.7383 23.5052 52.1337 23.132 51.7634Z" fill="#020202"/>
<path d="M38.5371 52.5821C38.5371 52.9795 38.864 53.3039 39.2646 53.3039C40.9934 53.3039 42.2584 54.2635 43.0269 56.1556C43.6517 57.6961 43.7013 59.2671 43.7013 59.2841C43.7116 59.6782 44.0317 59.9873 44.4288 59.9873H45.1101C45.5055 59.9873 45.8255 59.6782 45.8375 59.2858C45.8375 59.2705 45.8957 57.6808 46.5119 56.1573C47.2788 54.2652 48.5437 53.3056 50.2743 53.3056C50.6748 53.3056 51.0017 52.9812 51.0017 52.5838V52.1439C51.0017 51.7464 50.6748 51.422 50.2743 51.422C48.5454 51.422 47.2788 50.4624 46.5119 48.5703C45.8923 47.0434 45.8375 45.4571 45.8375 45.4418C45.8273 45.0478 45.5072 44.7404 45.1101 44.7404H44.4288C44.0317 44.7404 43.7116 45.0495 43.7013 45.4435C43.7013 45.4588 43.6534 47.0027 43.0406 48.5381C42.2755 50.4522 41.0054 51.4237 39.2646 51.4237C38.864 51.4237 38.5371 51.7481 38.5371 52.1456V52.5855V52.5821ZM41.6952 52.3018C42.8694 51.6921 43.7766 50.6034 44.3911 49.068C44.5058 48.7826 44.6102 48.4769 44.701 48.1627L44.7677 47.9368L44.8345 48.1627C44.9252 48.4752 45.0296 48.781 45.1443 49.068C45.7588 50.6051 46.666 51.6921 47.8402 52.3018L47.9566 52.363L47.8402 52.4241C46.666 53.0339 45.7588 54.1226 45.1443 55.658C45.0296 55.945 44.9252 56.249 44.8345 56.5632L44.7677 56.7891L44.701 56.5632C44.6085 56.249 44.5041 55.945 44.3911 55.658C43.7766 54.1209 42.8694 53.0339 41.6952 52.4241L41.5788 52.363L41.6952 52.3018Z" fill="#020202"/>
<path d="M13.0195 19.352C13.0195 19.048 12.7696 18.8001 12.4632 18.8001C10.2157 18.8001 10.0891 15.6732 10.0857 15.5407C10.0771 15.2401 9.83233 15.004 9.52936 15.004H9.14251C8.83954 15.004 8.59477 15.2401 8.58621 15.5407C8.58278 15.6732 8.45954 18.8001 6.20865 18.8001C5.90225 18.8001 5.65234 19.048 5.65234 19.352V19.6017C5.65234 19.9057 5.90225 20.1537 6.20865 20.1537C8.45954 20.1537 8.58278 23.2788 8.58621 23.413C8.59477 23.7153 8.83783 23.9514 9.14251 23.9514H9.52936C9.83233 23.9514 10.0771 23.7153 10.0857 23.4147C10.0891 23.2822 10.2123 20.1554 12.4632 20.1554C12.7696 20.1554 13.0195 19.9074 13.0195 19.6034V19.3537V19.352ZM10.7669 19.5338C10.1815 19.921 9.72107 20.5257 9.39755 21.3324L9.33422 21.4921L9.27089 21.3324C8.94738 20.5257 8.48693 19.921 7.90152 19.5338L7.81594 19.4777L7.90152 19.4217C8.48693 19.0344 8.94738 18.4298 9.27089 17.623L9.33422 17.4634L9.39755 17.623C9.71936 18.4298 10.1815 19.0344 10.7669 19.4217L10.8525 19.4777L10.7669 19.5338Z" fill="#020202"/>
<path d="M40.9411 3.79774C40.6347 3.79774 40.3848 4.04571 40.3848 4.34974V4.59941C40.3848 4.90343 40.6347 5.1514 40.9411 5.1514C43.192 5.1514 43.3152 8.27654 43.3186 8.41072C43.3272 8.71304 43.5702 8.94912 43.8749 8.94912H44.2618C44.5647 8.94912 44.8095 8.71304 44.8181 8.41241C44.8215 8.27994 44.9447 5.1531 47.1956 5.1531C47.502 5.1531 47.7519 4.90513 47.7519 4.60111V4.35143C47.7519 4.04741 47.502 3.79944 47.1956 3.79944C44.9447 3.79944 44.8215 0.672605 44.8181 0.540126C44.8095 0.239502 44.5647 0.00341797 44.2618 0.00341797H43.8749C43.572 0.00341797 43.3272 0.239502 43.3186 0.540126C43.3152 0.672605 43.192 3.79944 40.9411 3.79944V3.79774ZM44.005 2.61902L44.0684 2.45937L44.1317 2.61902C44.4552 3.42578 44.9156 4.03043 45.5011 4.41767L45.5866 4.47372L45.5011 4.52977C44.9156 4.91702 44.4552 5.52166 44.1317 6.32842L44.0684 6.48808L44.005 6.32842C43.6815 5.52166 43.2211 4.91702 42.6357 4.52977L42.5501 4.47372L42.6357 4.41767C43.2211 4.03043 43.6815 3.42578 44.005 2.61902Z" fill="#020202"/>
</g>
<defs>
<filter id="filter0_d_211_2005" x="0" y="0" width="55" height="70" filterUnits="userSpaceOnUse" color-interpolation-filters="sRGB">
<feFlood flood-opacity="0" result="BackgroundImageFix"/>
<feColorMatrix in="SourceAlpha" type="matrix" values="0 0 0 0 0 0 0 0 0 0 0 0 0 0 0 0 0 0 127 0" result="hardAlpha"/>
<feOffset dy="4"/>
<feGaussianBlur stdDeviation="2"/>
<feComposite in2="hardAlpha" operator="out"/>
<feColorMatrix type="matrix" values="0 0 0 0 0 0 0 0 0 0 0 0 0 0 0 0 0 0 0.25 0"/>
<feBlend mode="normal" in2="BackgroundImageFix" result="effect1_dropShadow_211_2005"/>
<feBlend mode="normal" in="SourceGraphic" in2="effect1_dropShadow_211_2005" result="shape"/>
</filter>
<clipPath id="clip0_211_2005">
<rect width="47" height="62" fill="white" transform="translate(4)"/>
</clipPath>
</defs>
</svg>
