<svg width="195" height="195" viewBox="0 0 195 195" fill="none" xmlns="http://www.w3.org/2000/svg">
<g filter="url(#filter0_f_211_2042)">
<circle cx="97.5" cy="97.5" r="27.5" fill="#020202" fill-opacity="0.1"/>
</g>
<g clip-path="url(#clip0_211_2042)">
<path d="M114.758 108.677C115.737 107.7 115.862 106.278 115.983 104.904C116.063 103.994 116.139 103.134 116.455 102.588C116.794 102.001 117.557 101.466 118.296 100.946C119.405 100.166 120.552 99.3608 120.896 98.0754C121.245 96.7711 120.648 95.4919 120.072 94.2551L120.067 94.2442C119.691 93.4406 119.306 92.6103 119.306 91.9542C119.306 91.2982 119.696 90.4616 120.072 89.6549C120.649 88.4181 121.247 87.1374 120.898 85.8331C120.553 84.5477 119.407 83.7425 118.298 82.9625C117.56 82.4445 116.796 81.9077 116.456 81.3207C116.139 80.773 116.063 79.9145 115.984 79.0041C115.863 77.6292 115.739 76.2072 114.759 75.2294C113.779 74.2516 112.354 74.1276 110.977 74.0068C110.065 73.9267 109.204 73.8514 108.655 73.5359C108.067 73.1969 107.529 72.4341 107.01 71.698C106.229 70.5915 105.422 69.4473 104.135 69.1052C102.827 68.7567 101.545 69.3532 100.306 69.9292C99.4972 70.3043 98.6605 70.6935 98.0015 70.6935C97.3425 70.6935 96.5058 70.3043 95.6958 69.9276C94.716 69.4724 93.7015 69.0016 92.6745 69.0016C92.3977 69.0016 92.1256 69.0361 91.8677 69.1052C90.5796 69.4489 89.7728 70.5931 88.9911 71.6996C88.4706 72.4357 87.9342 73.1969 87.346 73.5359C86.7971 73.853 85.9368 73.9283 85.0246 74.0068C83.6469 74.1276 82.222 74.2516 81.2422 75.2294C80.2623 76.2072 80.1381 77.6277 80.017 79.0026C79.9368 79.9129 79.8629 80.773 79.5452 81.3207C79.2054 81.9077 78.4427 82.4429 77.7035 82.9625C76.5947 83.7425 75.4481 84.5477 75.1037 85.8331C74.7545 87.1374 75.3522 88.4181 75.9294 89.6549C76.3069 90.4616 76.6953 91.2966 76.6953 91.9542C76.6953 92.6119 76.3053 93.4468 75.9294 94.2536C75.3522 95.4904 74.7545 96.7695 75.1037 98.0754C75.4481 99.3608 76.5947 100.166 77.7035 100.946C78.4411 101.466 79.2054 102.001 79.5452 102.588C79.8629 103.135 79.9384 103.994 80.017 104.904C80.1381 106.279 80.2623 107.701 81.2422 108.679C82.222 109.657 83.6469 109.781 85.0262 109.902C85.6459 109.955 86.286 110.012 86.7971 110.154L86.8899 110.179V126.17C86.8899 126.441 87.0236 126.697 87.2485 126.852C87.4734 127.008 87.7597 127.044 88.0145 126.95L97.8332 123.31L107.94 126.951C108.195 127.042 108.481 127.005 108.703 126.849C108.924 126.694 109.058 126.438 109.058 126.168V110.195L109.148 110.168C109.662 110.015 110.302 109.96 110.98 109.9C112.358 109.781 113.781 109.655 114.761 108.677H114.758ZM91.248 123.972L88.5555 124.971V111.597L88.7851 111.919C88.8543 112.014 88.9219 112.112 88.9911 112.209C89.6218 113.103 90.2745 114.028 91.1836 114.527L91.2496 114.563V123.974L91.248 123.972ZM102.795 123.329L98.1084 121.64C97.9244 121.574 97.7199 121.574 97.5344 121.643L92.9136 123.356V114.899L93.0268 114.888C93.9327 114.797 94.8276 114.381 95.6927 113.979C96.5011 113.603 97.3378 113.215 97.9967 113.215C98.6557 113.215 99.4924 113.604 100.301 113.979C101.075 114.339 101.874 114.711 102.687 114.849L102.792 114.866V123.329H102.795ZM107.386 124.983L104.464 123.93V114.693L104.541 114.66C105.599 114.208 106.317 113.191 107.01 112.209L107.386 111.677V124.983ZM107.82 108.93C106.914 109.453 106.269 110.366 105.647 111.25L105.632 111.27C105.025 112.13 104.451 112.937 103.788 113.166L103.761 113.176L103.733 113.173C103.589 113.155 103.445 113.174 103.314 113.229L103.289 113.24H103.261C102.611 113.213 101.833 112.852 101.01 112.469C100.037 112.017 99.0301 111.55 98.0015 111.55C96.9729 111.55 95.9663 112.017 94.9928 112.469C94.1403 112.865 93.3351 113.24 92.6714 113.24C92.5377 113.24 92.4135 113.224 92.2986 113.195C91.5956 113.008 90.9933 112.154 90.3563 111.25C89.7319 110.366 89.0871 109.451 88.1827 108.93C87.313 108.428 86.2247 108.334 85.1709 108.241C84.0417 108.142 82.9738 108.05 82.4249 107.5C81.8744 106.951 81.7816 105.885 81.6825 104.758C81.5897 103.707 81.4954 102.621 80.9921 101.753C80.4684 100.849 79.553 100.205 78.6676 99.5837C77.7617 98.9464 76.9076 98.3469 76.7189 97.6453C76.5255 96.9249 76.9721 95.9691 77.444 94.9552C77.8969 93.9836 78.3656 92.9791 78.3656 91.9527C78.3656 90.9262 77.8969 89.9217 77.4424 88.9486C76.9706 87.9363 76.5239 86.982 76.7173 86.2616C76.9045 85.56 77.7601 84.9589 78.6644 84.3232C79.5499 83.7001 80.4652 83.0566 80.989 82.1542C81.4907 81.2862 81.5866 80.2001 81.6794 79.1485C81.7785 78.02 81.8713 76.9559 82.4217 76.4066C82.9722 75.8572 84.0401 75.7646 85.1709 75.6658C86.2247 75.5732 87.313 75.479 88.1812 74.9767C89.0855 74.4541 89.7319 73.5406 90.3547 72.657C90.9933 71.753 91.5941 70.8991 92.2971 70.7124C92.4119 70.6825 92.5377 70.6668 92.6714 70.6668C93.3335 70.6668 94.1388 71.0404 94.9928 71.4375C95.9663 71.8895 96.9729 72.3572 98.0015 72.3572C99.0301 72.3572 100.037 71.8895 101.009 71.4375C102.023 70.9651 102.982 70.5209 103.704 70.7139C104.407 70.9007 105.01 71.7545 105.648 72.6586C106.271 73.5422 106.916 74.4557 107.822 74.9767C108.691 75.479 109.78 75.5732 110.834 75.6658C111.963 75.7646 113.031 75.8572 113.581 76.4066C114.132 76.9559 114.224 78.02 114.324 79.147C114.415 80.1985 114.511 81.2846 115.014 82.1542C115.538 83.0582 116.453 83.7017 117.34 84.3248C118.244 84.9605 119.1 85.5616 119.287 86.2632C119.481 86.9836 119.034 87.9394 118.562 88.9517C118.109 89.9233 117.64 90.9278 117.64 91.9542C117.64 92.9807 118.109 93.9852 118.562 94.9552C119.034 95.9675 119.481 96.9249 119.289 97.6453C119.102 98.3469 118.246 98.948 117.34 99.5837C116.455 100.207 115.538 100.85 115.014 101.753C114.511 102.621 114.416 103.708 114.324 104.76C114.224 105.887 114.132 106.951 113.581 107.5C113.031 108.05 111.963 108.142 110.834 108.241C109.78 108.334 108.691 108.428 107.822 108.93H107.82Z" fill="#020202"/>
<path d="M106.443 101.28L105.663 96.7412C105.501 95.7979 105.979 94.3304 106.665 93.6633L109.969 90.449C110.631 89.8055 110.886 89.0521 110.669 88.3835C110.451 87.7149 109.801 87.255 108.887 87.1232L104.321 86.4608C103.373 86.3227 102.121 85.4155 101.698 84.5586L99.6567 80.4292C99.2478 79.602 98.6092 79.1265 97.9046 79.1265C97.2 79.1265 96.5615 79.6005 96.1526 80.4292L94.1111 84.5586C93.6865 85.4171 92.4362 86.3243 91.4878 86.4608L86.9221 87.1232C86.0067 87.255 85.3572 87.7149 85.1401 88.3835C84.9231 89.0521 85.1779 89.8055 85.84 90.449L89.1444 93.6633C89.8317 94.332 90.3082 95.7979 90.1462 96.7412L89.3661 101.28C89.2104 102.189 89.4463 102.949 90.0173 103.361C90.5882 103.776 91.384 103.766 92.2018 103.336L96.2863 101.194C97.1356 100.748 98.68 100.748 99.5293 101.194L103.614 103.336C104.029 103.554 104.436 103.664 104.822 103.664C105.186 103.664 105.525 103.559 105.798 103.361C106.368 102.949 106.605 102.189 106.449 101.28H106.443ZM104.02 97.0237L104.8 101.563C104.818 101.673 104.826 101.775 104.823 101.863L104.817 102.023L104.663 101.98C104.578 101.957 104.485 101.917 104.383 101.866L100.298 99.7233C98.9537 99.0185 96.8477 99.0185 95.503 99.7233L91.4186 101.866C91.3195 101.917 91.2251 101.957 91.1402 101.98L90.9861 102.024L90.9798 101.864C90.9766 101.776 90.9845 101.676 91.0034 101.563L91.7835 97.0237C92.0398 95.5295 91.3887 93.5299 90.3019 92.4721L86.9976 89.2577C86.9158 89.1792 86.8497 89.1008 86.801 89.0286L86.7113 88.8967L86.8607 88.8402C86.9425 88.8104 87.0416 88.7853 87.1548 88.7696L91.7206 88.1073C93.2241 87.8891 94.929 86.6539 95.6005 85.2947L97.642 81.1653C97.6923 81.0648 97.7442 80.9785 97.7993 80.9079L97.8983 80.7823L97.9974 80.9079C98.0525 80.9769 98.1059 81.0633 98.1563 81.1653L100.198 85.2947C100.871 86.6539 102.574 87.8907 104.078 88.1073L108.643 88.7696C108.755 88.7853 108.854 88.8088 108.936 88.8402L109.085 88.8952L108.997 89.0286C108.949 89.1008 108.882 89.1792 108.801 89.2593L105.496 92.4737C104.408 93.5315 103.757 95.5311 104.015 97.0253L104.02 97.0237Z" fill="#020202"/>
<path d="M97.8235 109.779H97.6741C97.2385 109.775 96.8893 109.42 96.8941 108.987C96.8972 108.555 97.2495 108.207 97.682 108.207C97.6836 108.207 97.6867 108.207 97.6883 108.207H97.8235C98.1633 108.207 98.5077 108.196 98.8458 108.175C99.2815 108.149 99.6542 108.478 99.681 108.911C99.7077 109.345 99.379 109.718 98.9434 109.745C98.5722 109.768 98.1947 109.779 97.822 109.779H97.8235ZM94.6623 109.486C94.6136 109.486 94.5648 109.481 94.5145 109.472C94.0993 109.393 93.6825 109.299 93.2736 109.191C92.8536 109.079 92.602 108.649 92.7137 108.23C92.8253 107.811 93.2563 107.56 93.6762 107.671C94.0474 107.77 94.428 107.855 94.8054 107.927C95.2332 108.007 95.5132 108.418 95.433 108.845C95.3622 109.222 95.0303 109.486 94.6607 109.486H94.6623ZM101.892 109.288C101.538 109.288 101.218 109.048 101.128 108.69C101.024 108.268 101.282 107.842 101.704 107.739C102.076 107.646 102.451 107.54 102.817 107.422C103.231 107.287 103.674 107.513 103.809 107.926C103.945 108.338 103.718 108.783 103.305 108.916C102.904 109.046 102.491 109.164 102.083 109.264C102.02 109.28 101.955 109.288 101.894 109.288H101.892ZM90.625 108.181C90.5134 108.181 90.3986 108.158 90.29 108.106C89.9079 107.927 89.5273 107.731 89.1592 107.524C88.7802 107.312 88.6449 106.832 88.8588 106.453C89.0712 106.075 89.5524 105.94 89.9315 106.154C90.268 106.342 90.614 106.521 90.9616 106.684C91.3548 106.869 91.5247 107.337 91.3391 107.729C91.2054 108.014 90.9223 108.181 90.6266 108.181H90.625ZM105.849 107.762C105.569 107.762 105.297 107.613 105.156 107.35C104.95 106.968 105.091 106.491 105.475 106.284C105.813 106.102 106.148 105.906 106.474 105.699C106.84 105.466 107.328 105.573 107.56 105.94C107.793 106.306 107.686 106.792 107.318 107.025C106.963 107.251 106.593 107.467 106.222 107.667C106.103 107.731 105.975 107.761 105.849 107.761V107.762ZM87.0439 105.912C86.8677 105.912 86.69 105.852 86.5422 105.731C86.2166 105.463 85.8973 105.179 85.5922 104.889C85.2777 104.589 85.2667 104.091 85.5671 103.777C85.8675 103.464 86.366 103.453 86.6806 103.752C86.9589 104.018 87.2499 104.277 87.5472 104.521C87.8822 104.798 87.9293 105.294 87.6525 105.628C87.4968 105.816 87.2719 105.914 87.0454 105.914L87.0439 105.912ZM109.298 105.303C109.086 105.303 108.875 105.218 108.72 105.05C108.424 104.732 108.444 104.234 108.764 103.939C109.047 103.679 109.324 103.404 109.586 103.125C109.883 102.807 110.382 102.792 110.7 103.09C111.017 103.387 111.033 103.884 110.734 104.201C110.446 104.507 110.141 104.809 109.832 105.094C109.681 105.234 109.489 105.303 109.297 105.303H109.298ZM84.1374 102.829C83.8936 102.829 83.6546 102.718 83.5005 102.506C83.252 102.166 83.0129 101.812 82.7896 101.456C82.5599 101.087 82.6716 100.602 83.0396 100.373C83.4092 100.142 83.8952 100.255 84.1248 100.623C84.3277 100.948 84.5463 101.269 84.7728 101.58C85.0292 101.93 84.9521 102.423 84.5998 102.679C84.4598 102.781 84.2978 102.829 84.1358 102.829H84.1374ZM112.032 102.067C111.886 102.067 111.736 102.026 111.604 101.94C111.239 101.704 111.135 101.216 111.371 100.852C111.58 100.53 111.78 100.196 111.966 99.8599C112.175 99.4801 112.655 99.3404 113.035 99.5507C113.416 99.7595 113.554 100.238 113.345 100.618C113.141 100.987 112.922 101.354 112.692 101.707C112.541 101.94 112.288 102.065 112.03 102.065L112.032 102.067ZM82.0881 99.1254C81.7751 99.1254 81.4779 98.937 81.3552 98.6294C81.1995 98.2386 81.0564 97.8352 80.929 97.4334C80.7985 97.0191 81.0281 96.578 81.4433 96.4478C81.8585 96.3175 82.3004 96.5467 82.431 96.961C82.5474 97.3267 82.6779 97.694 82.8194 98.0503C82.9799 98.4536 82.7833 98.9104 82.3791 99.0704C82.2831 99.1081 82.1856 99.1269 82.0881 99.1269V99.1254ZM113.875 98.2527C113.792 98.2527 113.708 98.2402 113.625 98.2119C113.213 98.0738 112.99 97.6281 113.128 97.2168C113.249 96.8543 113.359 96.4807 113.455 96.1088C113.564 95.6881 113.991 95.4339 114.413 95.5422C114.834 95.6505 115.089 96.0774 114.981 96.498C114.875 96.9061 114.754 97.3157 114.621 97.7159C114.511 98.0455 114.204 98.2527 113.874 98.2527H113.875ZM81.0312 95.0258C80.6396 95.0258 80.3015 94.7354 80.2511 94.3383C80.1977 93.9209 80.1599 93.4955 80.1379 93.0749C80.1143 92.6417 80.4477 92.2713 80.8818 92.2477C81.3159 92.2242 81.6871 92.5569 81.7107 92.9901C81.7311 93.3731 81.7657 93.7608 81.8145 94.1406C81.8695 94.5706 81.5628 94.9646 81.1319 95.0195C81.0989 95.0242 81.0658 95.0258 81.0328 95.0258H81.0312ZM114.704 94.1013C114.685 94.1013 114.666 94.1013 114.647 94.0998C114.213 94.0684 113.886 93.6933 113.918 93.2601C113.944 92.8787 113.958 92.4895 113.958 92.1049V92.0672C113.958 91.6325 114.311 91.2809 114.746 91.2809C115.182 91.2809 115.534 91.6325 115.534 92.0672V92.1018C115.534 92.5271 115.519 92.954 115.49 93.3731C115.46 93.7874 115.114 94.1029 114.706 94.1029L114.704 94.1013ZM81.0281 90.7928C80.9951 90.7928 80.9636 90.7912 80.9306 90.7865C80.4996 90.7332 80.1929 90.3408 80.2464 89.9107C80.2983 89.4932 80.3659 89.071 80.4477 88.6583C80.5327 88.2329 80.9463 87.9551 81.3725 88.0399C81.7987 88.1246 82.0771 88.5374 81.9922 88.9627C81.9183 89.3394 81.8553 89.7224 81.8082 90.1038C81.7594 90.5024 81.4197 90.7928 81.0281 90.7928ZM114.47 89.8385C114.097 89.8385 113.765 89.5733 113.696 89.1935C113.627 88.8152 113.543 88.4354 113.447 88.065C113.339 87.6443 113.592 87.2159 114.014 87.1076C114.435 86.9993 114.864 87.252 114.973 87.6726C115.078 88.0807 115.169 88.4966 115.247 88.9125C115.325 89.3394 115.041 89.7491 114.613 89.8275C114.566 89.837 114.517 89.8401 114.47 89.8401V89.8385ZM82.074 86.6916C81.978 86.6916 81.8805 86.6744 81.7846 86.6367C81.3804 86.4766 81.1822 86.0215 81.3411 85.6165C81.4968 85.2241 81.6682 84.8318 81.8506 84.4519C82.0394 84.0611 82.5096 83.8963 82.9012 84.0847C83.2928 84.273 83.458 84.7423 83.2693 85.1331C83.1025 85.4784 82.9468 85.8363 82.8053 86.1925C82.6826 86.5017 82.3869 86.6901 82.0724 86.6901L82.074 86.6916ZM113.189 85.8033C112.892 85.8033 112.607 85.6338 112.474 85.3466C112.312 84.9981 112.136 84.6528 111.95 84.317C111.739 83.9371 111.878 83.4584 112.258 83.2481C112.639 83.0378 113.119 83.1759 113.329 83.5557C113.534 83.9246 113.727 84.3044 113.903 84.6858C114.086 85.0798 113.914 85.5475 113.52 85.7295C113.413 85.7798 113.299 85.8017 113.189 85.8017V85.8033ZM84.1154 82.9797C83.955 82.9797 83.793 82.9311 83.653 82.8291C83.3007 82.5748 83.2221 82.082 83.4784 81.732C83.7269 81.3914 83.9896 81.0555 84.2617 80.7322C84.5416 80.3994 85.0386 80.3571 85.372 80.6364C85.7055 80.9158 85.7479 81.4118 85.468 81.7445C85.2195 82.038 84.9804 82.3456 84.7539 82.6564C84.5998 82.8683 84.3592 82.9813 84.1154 82.9813V82.9797ZM110.939 82.2169C110.711 82.2169 110.484 82.1181 110.329 81.9282C110.086 81.6315 109.828 81.3396 109.564 81.0586C109.265 80.7432 109.281 80.2456 109.597 79.9474C109.913 79.6492 110.412 79.6649 110.711 79.9804C111 80.2864 111.283 80.6082 111.549 80.9331C111.824 81.269 111.774 81.7649 111.437 82.0396C111.291 82.1589 111.115 82.2169 110.94 82.2169H110.939ZM87.0171 79.8894C86.7907 79.8894 86.5658 79.792 86.4101 79.6053C86.1317 79.271 86.1789 78.775 86.5123 78.4988C86.8363 78.2304 87.176 77.9683 87.5188 77.7234C87.8727 77.4707 88.365 77.5523 88.6182 77.9055C88.8714 78.2586 88.7896 78.7499 88.4358 79.0026C88.1228 79.2254 87.8145 79.464 87.5188 79.7089C87.3726 79.8313 87.1933 79.8909 87.0156 79.8909L87.0171 79.8894ZM107.867 79.2961C107.705 79.2961 107.54 79.2458 107.4 79.1423C107.09 78.9131 106.768 78.6934 106.444 78.4893C106.076 78.2571 105.967 77.7721 106.2 77.4048C106.433 77.0375 106.919 76.9292 107.287 77.1615C107.644 77.386 107.996 77.6277 108.336 77.8788C108.685 78.1362 108.761 78.629 108.501 78.9775C108.347 79.1862 108.108 79.2961 107.867 79.2961ZM90.5936 77.6151C90.2979 77.6151 90.0164 77.4487 89.8811 77.1647C89.6955 76.7723 89.8638 76.303 90.2554 76.1178C90.6361 75.9373 91.0292 75.7694 91.4224 75.6171C91.8282 75.4602 92.2843 75.6611 92.4416 76.066C92.5989 76.4709 92.3975 76.9261 91.9918 77.0831C91.6332 77.2212 91.2762 77.375 90.9286 77.5382C90.8201 77.59 90.7053 77.6135 90.592 77.6135L90.5936 77.6151ZM104.166 77.2274C104.067 77.2274 103.968 77.2086 103.871 77.1694C103.514 77.025 103.147 76.8931 102.781 76.7739C102.367 76.6404 102.139 76.1978 102.273 75.7851C102.407 75.3723 102.85 75.1447 103.264 75.2781C103.666 75.4084 104.069 75.5543 104.461 75.7113C104.863 75.8745 105.058 76.3328 104.895 76.7346C104.77 77.0407 104.476 77.2259 104.165 77.2259L104.166 77.2274ZM94.6214 76.3014C94.2502 76.3014 93.9215 76.0393 93.8492 75.6626C93.7674 75.2357 94.0474 74.8245 94.4752 74.7429C94.8888 74.6644 95.3119 74.5985 95.7318 74.5498C96.1643 74.4996 96.5559 74.8072 96.6062 75.2389C96.6566 75.6705 96.3483 76.0613 95.9158 76.1115C95.5336 76.157 95.1483 76.2151 94.7708 76.2873C94.7205 76.2967 94.6717 76.3014 94.6214 76.3014ZM100.065 76.1476C100.03 76.1476 99.9955 76.146 99.9609 76.1413C99.5803 76.0911 99.1919 76.0534 98.8081 76.0315C98.374 76.0048 98.0437 75.6328 98.0689 75.1996C98.0956 74.7664 98.4684 74.4353 98.9025 74.462C99.324 74.4871 99.7502 74.5279 100.167 74.5828C100.598 74.6393 100.901 75.0348 100.845 75.4649C100.793 75.8604 100.453 76.1476 100.065 76.1476Z" fill="#020202"/>
</g>
<defs>
<filter id="filter0_f_211_2042" x="0" y="0" width="195" height="195" filterUnits="userSpaceOnUse" color-interpolation-filters="sRGB">
<feFlood flood-opacity="0" result="BackgroundImageFix"/>
<feBlend mode="normal" in="SourceGraphic" in2="BackgroundImageFix" result="shape"/>
<feGaussianBlur stdDeviation="35" result="effect1_foregroundBlur_211_2042"/>
</filter>
<clipPath id="clip0_211_2042">
<rect width="46" height="58" fill="white" transform="translate(75 69)"/>
</clipPath>
</defs>
</svg>
