<svg width="47" height="47" viewBox="0 0 47 47" fill="none" xmlns="http://www.w3.org/2000/svg">
<g clip-path="url(#clip0_211_2054)">
<path d="M23.4985 36.0538C16.5762 36.0538 10.9453 30.4217 10.9453 23.5006C10.9453 16.5794 16.5774 10.9474 23.4985 10.9474C30.4197 10.9474 36.0517 16.5794 36.0517 23.5006C36.0517 30.4217 30.4197 36.0538 23.4985 36.0538ZM23.4985 12.1765C17.2543 12.1765 12.1744 17.2564 12.1744 23.5006C12.1744 29.7448 17.2543 34.8247 23.4985 34.8247C29.7427 34.8247 34.8226 29.7448 34.8226 23.5006C34.8226 17.2564 29.7427 12.1765 23.4985 12.1765Z" fill="#020202"/>
<path d="M25.7468 47.0002H25.7386L21.1225 46.986C20.3585 46.9837 19.6392 46.6835 19.0976 46.1384C18.5561 45.5945 18.2594 44.8728 18.2618 44.1088L18.2688 41.8508C18.2653 41.8084 18.2629 41.7649 18.2629 41.7225C18.2629 41.4576 18.1711 41.374 18.1181 41.3481C18.0557 41.3305 17.9933 41.3069 17.9333 41.281C16.862 40.942 15.8178 40.5017 14.8277 39.9719C14.7865 39.9495 14.7453 39.9248 14.7052 39.8989C14.6511 39.8695 14.5969 39.84 14.5428 39.8106C14.4851 39.8106 14.4003 39.8294 14.2779 39.9366L12.1694 41.9615C11.3442 42.7538 10.1269 42.9798 9.07085 42.536C8.70943 42.3841 8.38803 42.164 8.11491 41.8791L4.91745 38.5486C3.8226 37.4078 3.85909 35.5889 4.99986 34.4929L7.10835 32.468C7.15661 32.4174 7.18722 32.3738 7.20724 32.3385C6.58211 31.1636 6.08648 29.9204 5.73095 28.6407C5.73095 28.6372 5.72859 28.6325 5.72741 28.6289C5.72035 28.6289 5.71446 28.6266 5.7074 28.6254L2.85959 28.6172C1.27852 28.6113 -0.00469615 27.3198 1.29194e-05 25.7387L0.0141401 21.1227C0.0164946 20.3575 0.317875 19.6393 0.861772 19.0978C1.40331 18.5586 2.12145 18.2631 2.88196 18.2631H2.8902L5.4743 18.2713C5.51904 18.2678 5.56377 18.2655 5.60851 18.2655C5.83219 18.2655 5.9146 18.2054 5.95463 18.1536C6.33488 16.9587 6.83875 15.8003 7.45564 14.7054L5.28594 12.5227C4.17107 11.4008 4.17578 9.58193 5.29771 8.46706L8.57169 5.21192C9.11205 4.67509 9.83019 4.3796 10.5942 4.3796H10.6025C11.37 4.38195 12.0894 4.68215 12.6285 5.2237L14.8453 7.45344C14.8559 7.45932 14.8665 7.46403 14.8759 7.46874C15.9496 6.89895 17.0821 6.4351 18.2453 6.08899C18.2994 6.05367 18.3736 5.97126 18.3748 5.72992C18.3748 5.71697 18.3748 5.7052 18.3748 5.69343L18.383 2.86092C18.3877 1.28221 19.6733 0.00134277 21.2508 0.00134277H21.2591L25.8751 0.01547C27.4562 0.020179 28.7394 1.31046 28.7347 2.89271L28.7265 5.84529C28.7406 6.02071 28.8007 6.08781 28.8477 6.12077C29.9826 6.46453 31.0893 6.92249 32.1394 7.48169C32.1959 7.48052 32.2807 7.4605 32.4019 7.35102L34.4751 5.2908C35.0154 4.75397 35.7336 4.45847 36.4964 4.45847H36.5047C37.2723 4.46083 37.9916 4.76103 38.5308 5.30257L41.7859 8.57655C42.3251 9.11927 42.6218 9.84093 42.6194 10.6073C42.6171 11.3737 42.3168 12.093 41.7741 12.6334L39.701 14.6948C39.6539 14.7466 39.6233 14.7902 39.6044 14.8267C40.2131 15.925 40.7087 17.087 41.0807 18.2855C41.1266 18.3267 41.2137 18.3726 41.4021 18.3726C41.4551 18.3726 41.5069 18.3761 41.5587 18.382L44.1381 18.3891C44.9033 18.3914 45.6226 18.6916 46.163 19.2355C46.7033 19.7794 47 20.4999 46.9977 21.2651L46.9835 25.8812C46.9812 26.6452 46.6798 27.3645 46.1359 27.9061C45.5932 28.4453 44.8762 28.7419 44.1145 28.7419H44.1063L41.2243 28.7337C41.2243 28.7337 41.2173 28.7337 41.2137 28.7361C40.857 30.004 40.3614 31.2342 39.7398 32.3974C39.7398 32.4409 39.7539 32.4927 39.7975 32.5598L41.7094 34.4823C42.2486 35.025 42.5441 35.7455 42.5417 36.5131C42.5394 37.2807 42.2392 38 41.6976 38.5392L38.4236 41.7943C37.8833 42.3311 37.1651 42.6266 36.4011 42.6266H36.3928C35.6253 42.6243 34.906 42.3241 34.3668 41.7825L32.7104 40.1167C32.6597 40.0778 32.6115 40.0355 32.5656 39.9895C32.4949 39.9189 32.4372 39.8777 32.3913 39.8542C31.267 40.4758 30.0756 40.9796 28.8489 41.3516C28.823 41.3622 28.7959 41.3717 28.7689 41.3799C28.7312 41.3964 28.6453 41.4517 28.6194 41.6295L28.6123 44.1453C28.6076 45.724 27.322 47.0049 25.7445 47.0049L25.7468 47.0002ZM14.5322 38.5792C14.6723 38.5792 14.7994 38.5992 14.9089 38.6274C14.9607 38.6404 15.0102 38.6604 15.0572 38.6875C15.1444 38.7358 15.2315 38.784 15.3198 38.8311C15.3421 38.8429 15.3645 38.857 15.3857 38.8723C15.3939 38.8782 15.401 38.8829 15.4093 38.8864C16.344 39.3868 17.3305 39.8012 18.3418 40.119C18.3701 40.1285 18.3983 40.1391 18.4254 40.152C18.4395 40.1591 18.4537 40.1638 18.4678 40.1673C18.4878 40.172 18.5078 40.1791 18.5278 40.1861C18.9964 40.358 19.4955 40.8513 19.4932 41.7237C19.4932 41.7319 19.4932 41.7413 19.4944 41.7496C19.4967 41.7731 19.4979 41.7978 19.4979 41.8225L19.4908 44.1112C19.4897 44.5467 19.6592 44.9588 19.9688 45.2696C20.2784 45.5804 20.6893 45.7523 21.1249 45.7534L25.7421 45.7676H25.7468C26.6474 45.7676 27.382 45.0353 27.3856 44.1335L27.3926 41.58C27.3926 41.5577 27.3938 41.5365 27.3962 41.5153C27.4774 40.7736 27.953 40.3545 28.3721 40.2097C28.3792 40.2073 28.3863 40.205 28.3945 40.2026C28.4004 40.2003 28.4074 40.1979 28.4133 40.1956C28.4322 40.1873 28.4522 40.1803 28.471 40.1744C29.6918 39.8059 30.875 39.2973 31.9863 38.6651C32.0829 38.6098 32.1912 38.5839 32.303 38.5851C32.7174 38.5933 33.1 38.7711 33.4403 39.1137C33.4497 39.1231 33.4591 39.1313 33.4697 39.1384C33.4991 39.1596 33.5274 39.1831 33.5521 39.2078L35.2415 40.9066C35.5487 41.2163 35.9596 41.387 36.3987 41.3881H36.4034C36.8402 41.3881 37.2511 41.2198 37.5583 40.9137L40.8323 37.6586C41.1419 37.3513 41.3126 36.9404 41.3138 36.5013C41.315 36.0622 41.1466 35.6501 40.8394 35.3417L38.891 33.3815C38.8698 33.3604 38.8498 33.3368 38.8321 33.3133C38.5508 32.9318 38.4531 32.4998 38.5496 32.063C38.5614 32.0065 38.5826 31.9523 38.6096 31.9029C39.2548 30.7127 39.7575 29.4471 40.1036 28.1404C40.1389 28.0085 40.2154 27.892 40.3237 27.8095C40.5439 27.6412 40.8088 27.5376 41.1137 27.5011C41.1384 27.4976 41.1619 27.4964 41.1879 27.4964L44.1134 27.5046H44.1181C44.5525 27.5046 44.9622 27.3351 45.2718 27.0267C45.5826 26.717 45.7545 26.3074 45.7568 25.8706L45.771 21.2545C45.7721 20.8178 45.6026 20.4057 45.2942 20.0949C44.9845 19.7841 44.5748 19.6122 44.1381 19.6111L41.521 19.6028C41.4916 19.6028 41.4622 19.6005 41.4327 19.5958C41.4221 19.5946 41.4127 19.5934 41.4021 19.5934C40.6298 19.5911 40.2225 19.2155 40.0153 18.9012C39.9835 18.8517 39.9576 18.7988 39.9411 18.7422C39.5703 17.5191 39.0605 16.3359 38.426 15.2246C38.3695 15.1269 38.3424 15.015 38.3448 14.902C38.3553 14.5194 38.5131 14.1615 38.8121 13.8413C38.818 13.8354 38.8227 13.8295 38.8286 13.8248L40.9112 11.7552C41.2208 11.4479 41.3927 11.0359 41.3939 10.5979C41.3951 10.16 41.2267 9.74793 40.9183 9.43831L37.6631 6.16433C37.3559 5.85471 36.945 5.68401 36.5059 5.68283H36.5012C36.0644 5.68283 35.6547 5.85118 35.3463 6.15727L33.2637 8.2269C33.2637 8.2269 33.2519 8.2375 33.246 8.24338C32.7009 8.7449 32.1582 8.74843 31.7992 8.66367C31.7474 8.65072 31.6967 8.63188 31.6496 8.60598C30.6266 8.05384 29.5447 7.60531 28.4345 7.27332C28.4004 7.26272 28.3662 7.24977 28.3345 7.23329C27.8341 6.98135 27.5386 6.50692 27.5021 5.89709C27.5021 5.88414 27.501 5.87119 27.5021 5.85824L27.5104 2.88329C27.5127 1.98033 26.7805 1.24218 25.8763 1.23983L21.2603 1.2257H21.2556C20.3538 1.2257 19.6192 1.95796 19.6168 2.85975L19.6086 5.70049C19.6086 5.70638 19.6086 5.71344 19.6086 5.71933V5.72992C19.6062 6.65643 19.0705 7.05435 18.7527 7.20974C18.7221 7.22505 18.6903 7.23682 18.6573 7.24624C17.4918 7.58882 16.3593 8.05737 15.2903 8.64012C15.2032 8.68721 15.1067 8.71311 15.009 8.71547C14.6935 8.72253 14.3944 8.62835 14.1166 8.43881C14.0848 8.41644 14.0554 8.39172 14.0271 8.36464L11.7621 6.08663C11.4548 5.77701 11.0439 5.60631 10.6048 5.60513C10.1692 5.60395 9.75366 5.7723 9.44522 6.07957L6.17124 9.33471C5.53081 9.97161 5.52728 11.0111 6.16418 11.6516L8.37038 13.8707C8.38803 13.8884 8.40452 13.9072 8.41982 13.926C8.59759 14.1544 8.70825 14.4005 8.74828 14.6583C8.77065 14.7984 8.74357 14.942 8.67176 15.0645C8.02073 16.177 7.49567 17.3637 7.11188 18.5904C7.09893 18.6304 7.08362 18.6681 7.06243 18.7046C6.78224 19.212 6.26778 19.491 5.61675 19.491C5.60733 19.491 5.59674 19.491 5.58496 19.4922C5.56024 19.4957 5.53552 19.4969 5.50962 19.4969L2.89256 19.4886C2.45697 19.4827 2.04492 19.657 1.73413 19.9666C1.42333 20.2762 1.25027 20.6871 1.24909 21.1227L1.23497 25.7387C1.23261 26.6417 1.96487 27.3798 2.86901 27.3822L5.75331 27.3904C5.7745 27.3904 5.79687 27.3916 5.81806 27.394C6.15594 27.4305 6.44555 27.5494 6.67982 27.7448C6.77753 27.8272 6.84817 27.9379 6.87996 28.0627L6.89173 28.1074C6.90468 28.1545 6.91057 28.2039 6.91174 28.2522C6.91174 28.2699 6.91527 28.2887 6.91998 28.3064C7.27081 29.5696 7.76879 30.7951 8.40098 31.9476C8.45514 32.0465 8.48104 32.1584 8.47633 32.2714C8.45867 32.654 8.29621 33.0084 7.9913 33.3239C7.98541 33.3298 7.9807 33.3345 7.97481 33.3403L5.85691 35.3735C5.20588 35.9998 5.18469 37.0381 5.80982 37.6903L9.00728 41.0208C9.16385 41.1833 9.34633 41.3093 9.55235 41.3952C10.1575 41.6483 10.8521 41.52 11.3241 41.0679L13.442 39.0336C13.442 39.0336 13.4538 39.023 13.4597 39.0171C13.8435 38.6757 14.2226 38.5733 14.5369 38.5733L14.5322 38.5792Z" fill="#020202"/>
<path d="M25.4296 22.5447C25.2754 22.5447 25.1212 22.487 25.0011 22.3705C24.7574 22.1338 24.7515 21.7441 24.9882 21.5005L27.2662 19.1565C27.5028 18.9128 27.8925 18.9069 28.1362 19.1436C28.3799 19.3802 28.3858 19.7699 28.1491 20.0136L25.8711 22.3575C25.751 22.4811 25.5909 22.5435 25.4296 22.5435V22.5447Z" fill="#020202"/>
<path d="M21.615 22.9437C21.4902 22.9437 21.3643 22.906 21.2548 22.8271L16.6881 19.519C16.4127 19.3201 16.3514 18.9351 16.5504 18.6608C16.7494 18.3853 17.1343 18.3241 17.4086 18.5231L21.9753 21.8312C22.2507 22.0301 22.3119 22.4151 22.113 22.6894C21.9929 22.8554 21.8045 22.9437 21.615 22.9437Z" fill="#020202"/>
<path d="M23.6165 35.7747C23.2774 35.7747 23.002 35.4993 23.002 35.1602V32.7292C23.002 32.3901 23.2774 32.1146 23.6165 32.1146C23.9555 32.1146 24.231 32.3901 24.231 32.7292V35.1602C24.231 35.4993 23.9555 35.7747 23.6165 35.7747Z" fill="#020202"/>
<path d="M23.6165 15.0207C23.2774 15.0207 23.002 14.7452 23.002 14.4062V12.0681C23.002 11.7291 23.2774 11.4536 23.6165 11.4536C23.9555 11.4536 24.231 11.7291 24.231 12.0681V14.4062C24.231 14.7452 23.9555 15.0207 23.6165 15.0207Z" fill="#020202"/>
<path d="M35.1629 24.2293H32.8743C32.5352 24.2293 32.2598 23.9538 32.2598 23.6148C32.2598 23.2757 32.5352 23.0002 32.8743 23.0002H35.1629C35.502 23.0002 35.7774 23.2757 35.7774 23.6148C35.7774 23.9538 35.502 24.2293 35.1629 24.2293Z" fill="#020202"/>
<path d="M14.3484 24.2293H12.0716C11.7325 24.2293 11.457 23.9538 11.457 23.6148C11.457 23.2757 11.7325 23.0002 12.0716 23.0002H14.3484C14.6874 23.0002 14.9629 23.2757 14.9629 23.6148C14.9629 23.9538 14.6874 24.2293 14.3484 24.2293Z" fill="#020202"/>
<path d="M23.6439 26.3178C23.253 26.3178 22.8551 26.2366 22.4772 26.0647C21.0539 25.4184 20.4217 23.7349 21.068 22.3128C21.3812 21.6229 21.9439 21.0967 22.6526 20.8306C23.3613 20.5645 24.1312 20.5904 24.8211 20.9024C25.511 21.2156 26.0372 21.7783 26.3033 22.487C26.5694 23.1957 26.5435 23.9657 26.2315 24.6555C25.7571 25.6998 24.7246 26.3178 23.6462 26.3178H23.6439ZM23.6486 21.8784C23.4579 21.8784 23.2671 21.9125 23.0835 21.982C22.682 22.1327 22.3642 22.4305 22.1864 22.8214C21.8203 23.6266 22.1782 24.5802 22.9846 24.9463C23.7898 25.3125 24.7434 24.9546 25.1096 24.1481C25.2861 23.7573 25.3015 23.3217 25.1508 22.9202C25.0001 22.5188 24.7022 22.2009 24.3114 22.0232C24.0995 21.9266 23.8746 21.8784 23.6486 21.8784Z" fill="#020202"/>
</g>
<defs>
<clipPath id="clip0_211_2054">
<rect width="47" height="47" fill="white"/>
</clipPath>
</defs>
</svg>
