<svg width="47" height="52" viewBox="0 0 47 52" fill="none" xmlns="http://www.w3.org/2000/svg">
<g clip-path="url(#clip0_211_2020)">
<path d="M39.2054 11.5027C39.1054 11.1965 38.8436 10.9761 38.5234 10.9302L28.9341 9.54499C28.6724 9.50673 28.4461 9.34295 28.3291 9.10723L24.0386 0.468372C23.8969 0.183675 23.5998 0 23.2811 0C22.9625 0 22.6669 0.179083 22.5237 0.468372L18.2348 9.10876C18.1178 9.34448 17.8915 9.50826 17.6298 9.54652L8.0404 10.9317C7.72019 10.9777 7.45848 11.1981 7.35841 11.5042C7.25835 11.8103 7.33994 12.1409 7.5724 12.3659L14.5108 19.0915C14.7001 19.2752 14.7864 19.54 14.7417 19.7987L13.1037 29.2947C13.0483 29.613 13.1776 29.9268 13.4393 30.1166C13.7026 30.3064 14.0428 30.3309 14.3291 30.1809L22.9071 25.6977C23.1411 25.5753 23.4212 25.5753 23.6552 25.6977L32.2332 30.1809C32.3532 30.2437 32.4887 30.2773 32.6257 30.2773C32.8058 30.2773 32.9783 30.2222 33.123 30.1166C33.3847 29.9268 33.514 29.613 33.4586 29.2947L31.8206 19.7987C31.7759 19.54 31.8621 19.2752 32.0515 19.0915L38.9914 12.3659C39.2239 12.1409 39.3055 11.8103 39.2054 11.5042V11.5027ZM35.4168 13.4802L30.2503 18.4869C30.0517 18.6798 29.9609 18.9583 30.0071 19.2308L31.2263 26.3008C31.2787 26.6023 31.1555 26.9023 30.9061 27.0829C30.6598 27.2605 30.3273 27.2834 30.0594 27.1441L23.6737 23.8058C23.4305 23.6788 23.1287 23.6788 22.8855 23.8058L16.4998 27.1441C16.3843 27.2054 16.255 27.236 16.1257 27.236C15.9564 27.236 15.7932 27.1824 15.6546 27.0829C15.4052 26.9023 15.2821 26.6023 15.3344 26.3008L16.5537 19.2308C16.6014 18.9583 16.5106 18.6798 16.3104 18.4869L11.144 13.4802C10.9238 13.2659 10.8453 12.9522 10.9408 12.6613C11.0362 12.3705 11.2841 12.1608 11.5904 12.118L18.7305 11.0863C19.006 11.0465 19.2431 10.8751 19.3663 10.6271L22.5591 4.19392C22.6961 3.91841 22.9717 3.74851 23.2796 3.74851C23.5875 3.74851 23.8646 3.91994 24.0001 4.19392L27.1929 10.6271C27.3161 10.8751 27.5547 11.0465 27.8287 11.0863L34.9688 12.118C35.2736 12.1624 35.523 12.3705 35.6185 12.6613C35.7139 12.9522 35.6354 13.2675 35.4152 13.4802H35.4168Z" fill="#020202"/>
<path d="M37.3319 36.4381C38.3402 36.6738 39.1561 36.8698 39.7565 37.0182C41.9056 37.5524 42.7493 41.4249 44.4288 49.1393C44.6228 50.0301 44.8306 50.9852 45.0554 52H47.0013C46.7488 50.8628 46.5163 49.7913 46.3039 48.8194L46.287 48.7398C44.3826 39.9953 43.5144 36.0034 40.2184 35.1845C37.6998 34.5585 32.2331 33.3279 30.0009 32.8274L28.2028 32.3789L25.2609 38.3637C25.1608 38.5688 25.1393 38.8014 25.1993 39.0218L28.4076 50.7694C28.4568 50.9515 28.4445 51.1459 28.3737 51.3204L28.095 51.9985H30.1487L36.3327 36.9494C36.4944 36.5545 36.9147 36.3386 37.3334 36.4366L37.3319 36.4381ZM34.3499 36.7749L30.6336 45.8193C30.4997 46.1438 30.1856 46.3551 29.8316 46.3551C29.8146 46.3551 29.7977 46.3551 29.7792 46.3551C29.4082 46.3321 29.0942 46.078 28.9956 45.7214L27.2099 39.1841C27.1544 38.9836 27.176 38.7693 27.2668 38.5825L28.9171 35.2075C29.0942 34.8463 29.4929 34.6565 29.887 34.7437C30.8938 34.9703 32.2824 35.2825 33.7403 35.6147C33.9881 35.6713 34.1975 35.832 34.316 36.057C34.433 36.282 34.4454 36.5453 34.3499 36.7795V36.7749Z" fill="#020202"/>
<path d="M18.787 50.7174L21.9814 39.0234C22.0414 38.803 22.0199 38.5688 21.9198 38.3637L19.0379 32.5856L16.9627 32.8397C14.732 33.3386 9.29614 34.5631 6.78681 35.1861C3.4908 36.005 2.62254 39.9969 0.71822 48.7413L0.699746 48.8255C0.488839 49.7959 0.25484 50.8659 0.00390625 52.0016H1.9498C2.16686 51.0204 2.36853 50.0944 2.55635 49.2281L2.57328 49.15C4.25438 41.4295 5.09801 37.554 7.24711 37.0198C7.88753 36.8606 8.78042 36.6479 9.89808 36.3861C10.3168 36.2897 10.7371 36.5055 10.8987 36.9004L16.7241 51.1567C16.7441 51.2057 16.7595 51.2562 16.7703 51.3067C16.7949 51.423 16.838 51.5317 16.9011 51.6281C16.9304 51.674 16.955 51.7215 16.975 51.7705L17.0705 52.0016H19.1226L18.8224 51.2684C18.7516 51.0954 18.7393 50.8995 18.7885 50.7189L18.787 50.7174ZM17.4184 46.2801C17.4015 46.2801 17.383 46.2816 17.366 46.2816C17.012 46.2816 16.6979 46.0704 16.564 45.7444L12.877 36.7213C12.7815 36.4871 12.7938 36.2239 12.9108 36.0004C13.0278 35.7769 13.2372 35.6147 13.485 35.558C14.9383 35.2274 16.3069 34.9198 17.2737 34.7024C17.6678 34.6152 18.0665 34.805 18.2435 35.1662L19.9108 38.578C20.0016 38.7647 20.0232 38.979 19.9677 39.1795L18.202 45.6449C18.105 46.0015 17.7894 46.2556 17.4184 46.2786V46.2801Z" fill="#020202"/>
</g>
<defs>
<clipPath id="clip0_211_2020">
<rect width="47" height="52" fill="white"/>
</clipPath>
</defs>
</svg>
