<svg width="48" height="44" viewBox="0 0 48 44" fill="none" xmlns="http://www.w3.org/2000/svg">
<g clip-path="url(#clip0_211_2030)">
<path d="M17.4127 10.8208L17.3962 10.6833C18.7019 9.86915 19.5102 8.4383 19.5102 6.93003C19.5102 4.47543 17.4606 2.47998 14.9425 2.47998C12.4243 2.47998 10.3733 4.47676 10.3733 6.93003C10.3733 8.46633 11.2036 9.91053 12.5449 10.7181L12.5325 10.8208C11.5529 11.0357 9.88969 11.4041 9.06902 11.6043C7.66471 11.946 7.34549 13.3822 6.64676 16.5309C6.52345 17.0861 6.38371 17.7148 6.22067 18.4155C5.3178 22.309 5.11503 23.9895 5.08078 24.3045C5.01502 24.6074 4.85061 25.6152 5.37672 26.3907C5.67402 26.8285 6.13573 27.1074 6.70978 27.1982C6.8372 27.2182 6.96187 27.2289 7.08518 27.2289C7.52908 27.2289 7.93872 27.0981 8.28672 26.8418C9.1156 26.2305 9.30878 25.1053 9.33618 24.8958L10.883 17.7015C10.9255 17.5079 10.8871 17.309 10.7747 17.1435C10.6638 16.978 10.4925 16.8632 10.2939 16.8232C10.0952 16.7832 9.89106 16.8192 9.72117 16.9286C9.55128 17.0368 9.43346 17.2036 9.39236 17.3971L7.84008 24.6141C7.83597 24.6341 7.83186 24.6582 7.82912 24.6782C7.80035 24.9091 7.64827 25.4523 7.36467 25.6592C7.29206 25.7126 7.17971 25.7687 6.95228 25.734C6.73307 25.6993 6.67416 25.6139 6.64676 25.5738C6.4755 25.3242 6.52482 24.7997 6.57278 24.6008C6.58237 24.5647 6.58785 24.5274 6.59196 24.4887C6.59333 24.4726 6.75362 22.8509 7.70581 18.7439C7.86748 18.0485 8.00723 17.4172 8.13464 16.8459C8.62786 14.6289 8.95257 13.1633 9.43757 13.0459C10.5227 12.7816 13.2737 12.1809 13.3916 12.1556C13.708 12.0862 13.9451 11.8299 13.9821 11.5162L14.1149 10.391C14.1533 10.0707 13.9766 9.76504 13.6752 9.63157C12.5928 9.14972 11.8941 8.08993 11.8941 6.9327C11.8941 5.29764 13.26 3.96689 14.9397 3.96689C16.6194 3.96689 17.984 5.29764 17.984 6.9327C17.984 8.06857 17.3031 9.12036 16.2509 9.61021C15.9577 9.74635 15.785 10.0507 15.8234 10.3643L15.9604 11.5162C15.9974 11.8299 16.2344 12.0862 16.5564 12.1569L17.4113 10.8235L17.4127 10.8208Z" fill="#020202"/>
<path d="M19.3514 24.3499C18.9308 24.3499 18.5896 24.6835 18.5896 25.092L18.5965 40.9822C18.5403 41.1423 18.3526 41.476 17.7662 41.5067C17.1716 41.5374 16.8935 41.1583 16.7935 40.9701L15.7344 25.9075C15.707 25.5204 15.3728 25.2161 14.9741 25.2161C14.5754 25.2161 14.2411 25.5191 14.2137 25.9075L13.1546 40.9688C13.0546 41.157 12.7792 41.5374 12.1819 41.5067C11.5928 41.476 11.4064 41.145 11.3516 40.9848L11.3626 25.0106C11.3626 24.6008 11.0214 24.2684 10.6008 24.2684C10.1816 24.2684 9.83908 24.6008 9.83908 25.0106L9.82812 41.0796C9.82812 41.125 9.83223 41.1717 9.84183 41.2171C9.9528 41.7964 10.5693 42.9109 12.1024 42.9896C12.1545 42.9923 12.2052 42.9936 12.2559 42.9936C13.667 42.9936 14.4192 41.9605 14.6247 41.3959C14.648 41.3332 14.6617 41.2665 14.6658 41.1997L14.9741 36.8164L15.2823 41.2011C15.2864 41.2691 15.3015 41.3345 15.3234 41.3973C15.5303 41.9699 16.3345 43.071 17.8457 42.991C19.3788 42.9122 19.9953 41.7964 20.1063 41.2184C20.1145 41.173 20.12 41.1276 20.12 41.0809L20.1132 25.0933C20.1132 24.6849 19.7706 24.3512 19.3514 24.3512V24.3499Z" fill="#020202"/>
<path d="M19.9434 22.1689C19.5488 22.1689 19.2282 21.8565 19.2282 21.4721V15.3496C19.2282 15.1468 19.3186 14.9546 19.4762 14.8224C19.6337 14.6903 19.842 14.6315 20.0475 14.6596L30.2133 16.1051C30.4641 16.0304 31.0217 15.7874 31.0217 15.0934C31.0217 14.2818 30.0078 14.1684 29.964 14.1644C29.953 14.1644 29.9421 14.1617 29.9311 14.1604L16.6648 12.1916C16.2744 12.1342 16.0058 11.7779 16.0647 11.3974C16.1237 11.017 16.4895 10.7554 16.8799 10.8128L30.1339 12.7789C30.2503 12.7936 30.7353 12.8643 31.2286 13.1246C32.0177 13.5411 32.452 14.2405 32.452 15.092C32.452 16.6964 31.097 17.3678 30.3805 17.4986C30.3024 17.5133 30.2229 17.5146 30.1448 17.5026L20.6586 16.1545V21.4708C20.6586 21.8552 20.338 22.1675 19.9434 22.1675V22.1689Z" fill="#020202"/>
<path d="M28.0726 42.78C27.678 42.78 27.3574 42.4677 27.3574 42.0833V16.6309C27.3574 16.2465 27.678 15.9342 28.0726 15.9342C28.4672 15.9342 28.7878 16.2465 28.7878 16.6309V42.0833C28.7878 42.4677 28.4672 42.78 28.0726 42.78Z" fill="#020202"/>
<path d="M27.9749 13.3982C27.5804 13.3982 27.2598 13.0859 27.2598 12.7015V0.696739C27.2598 0.312331 27.5804 0 27.9749 0C28.3695 0 28.6901 0.312331 28.6901 0.696739V12.7015C28.6901 13.0859 28.3695 13.3982 27.9749 13.3982Z" fill="#020202"/>
<path d="M46.635 11.2452C46.5514 11.2452 46.4651 11.2319 46.3829 11.2052C40.5369 9.30584 39.4751 9.6115 37.868 10.076C36.9898 10.3296 35.8965 10.6459 33.9442 10.6793C29.3805 10.7567 27.6008 8.99885 27.5268 8.9241L28.6804 7.85096L28.6722 7.84295C28.6722 7.84295 29.0298 8.18064 29.8408 8.50365C30.5998 8.80664 31.9219 9.16035 33.9154 9.12565C35.6512 9.09495 36.587 8.82533 37.4131 8.58641C39.1586 8.08187 40.4684 7.83895 44.7251 9.06558L43.0112 6.54157C42.8906 6.36405 42.8509 6.14782 42.8989 5.94094C42.9468 5.73405 43.0797 5.55519 43.2674 5.44708L45.4869 4.15237C41.0959 2.3291 39.5477 2.93508 37.916 3.57576C37.083 3.90277 36.139 4.2725 34.8594 4.32722C34.7169 4.3339 34.5744 4.33657 34.4333 4.33657C30.6067 4.33657 27.8008 2.15959 27.6789 2.06482C27.3364 1.7952 27.2829 1.30535 27.5611 0.971665C27.8378 0.637978 28.3406 0.585922 28.6831 0.856876C28.7078 0.876898 31.3643 2.92173 34.7909 2.77625C35.7965 2.73353 36.5363 2.44256 37.32 2.13557C38.2886 1.7565 39.386 1.32537 40.9917 1.38944C42.7345 1.45885 44.8169 2.08485 47.5461 3.3582C47.8105 3.48233 47.9845 3.73726 47.9982 4.0229C48.0119 4.30854 47.8626 4.57816 47.6105 4.72631L44.8005 6.36405L47.2967 10.0426C47.4844 10.3189 47.4707 10.6806 47.2639 10.9436C47.1104 11.1384 46.8748 11.2479 46.6309 11.2479L46.635 11.2452Z" fill="#020202"/>
<path d="M44.9338 44.0001H0.797374C0.356215 44.0001 0 43.6517 0 43.2232C0 42.7948 0.357585 42.4464 0.797374 42.4464H44.9338C45.375 42.4464 45.7312 42.7948 45.7312 43.2232C45.7312 43.6517 45.3736 44.0001 44.9338 44.0001Z" fill="#020202"/>
</g>
<defs>
<clipPath id="clip0_211_2030">
<rect width="48" height="44" fill="white"/>
</clipPath>
</defs>
</svg>
